# xmcd
#
# Track frame offsets: 
#        150
#        12343
#        21104
#        32646
#        46007
#        60205
#        81018
#        93072
#        107070
#        121211
#        133931
#        147095
#        160040
#        172737
#        178762
#        190777
#        201954
#        214383
#
# Disc length: 3043 seconds
#
# Revision: 7
# Processed by: cddbd v1.5.2PL0 Copyright (c) Steve Scherf et al.
# Submitted via: ExactAudioCopy v0.95b2
#
DISCID=e30be112
DTITLE=Blind Willie McTell - The Essential Blind Willie McTell Disc 1
DYEAR=2001
DGENRE=Blues
TTITLE0=Three Women Blues
TTITLE1=Boll Weevil
TTITLE2=Don't ForgetIit
TTITLE3=My Baby's Gone
TTITLE4=Atlanta Strut
TTITLE5=I Got to Cross de River O' Jordan
TTITLE6=Teasing Brown
TTITLE7=Stomp Down Rider
TTITLE8=Stole Rider Blues
TTITLE9=Chainey
TTITLE10=Mama, 'Tain't Long fo' Day
TTITLE11=Painful Blues
TTITLE12=B and O Blues No. 2
TTITLE13=Amazing Grace
TTITLE14=Honey It Must Be Love
TTITLE15=Statesboro Blues
TTITLE16=God Don't Like It
TTITLE17=Murderer's Home Blues
EXTD=
EXTT0=
EXTT1=
EXTT2=with Curley Weaver
EXTT3=
EXTT4=
EXTT5=
EXTT6=with Alfoncy Harris and Bethenea Harris
EXTT7=
EXTT8=
EXTT9=
EXTT10=
EXTT11=with Ruth Willis
EXTT12=
EXTT13=
EXTT14=with Curley Weaver
EXTT15=
EXTT16=with Kate McTell
EXTT17=includes "Mr. McTell got the blues"
PLAYORDER=
